<svg xmlns="http://www.w3.org/2000/svg" xmlns:xlink="http://www.w3.org/1999/xlink" width="200" zoomAndPan="magnify" viewBox="0 0 150 149.999998" height="200" preserveAspectRatio="xMidYMid meet" version="1.0"><defs><g/><clipPath id="6d6ce51fe7"><path d="M 15.683594 48.308594 L 134.609375 48.308594 L 134.609375 146.203125 L 15.683594 146.203125 Z M 15.683594 48.308594 " clip-rule="nonzero"/></clipPath><clipPath id="8123c2f21f"><path d="M 45.339844 48.308594 L 104.660156 48.308594 L 134.316406 146.203125 L 15.683594 146.203125 Z M 45.339844 48.308594 " clip-rule="nonzero"/></clipPath><clipPath id="8f125ed687"><path d="M 12 30 L 138.515625 30 L 138.515625 150 L 12 150 Z M 12 30 " clip-rule="nonzero"/></clipPath></defs><g clip-path="url(#6d6ce51fe7)"><g clip-path="url(#8123c2f21f)"><path fill="#ff99d8" d="M 15.683594 48.308594 L 134.226562 48.308594 L 134.226562 146.203125 L 15.683594 146.203125 Z M 15.683594 48.308594 " fill-opacity="1" fill-rule="nonzero"/></g></g><g clip-path="url(#8f125ed687)"><path fill="#ff99d8" d="M 128.894531 150.835938 L 21.730469 150.835938 C 19.128906 150.835938 16.605469 149.75 14.820312 147.859375 C 13.03125 145.96875 12.085938 143.390625 12.230469 140.789062 L 17.875 39.246094 C 18.152344 34.203125 22.320312 30.253906 27.375 30.253906 L 123.253906 30.253906 C 128.304688 30.253906 132.472656 34.203125 132.753906 39.246094 L 138.394531 140.789062 C 138.539062 143.390625 137.59375 145.96875 135.804688 147.859375 C 134.015625 149.75 131.496094 150.835938 128.894531 150.835938 Z M 27.375 36.601562 C 25.691406 36.601562 24.296875 37.921875 24.207031 39.597656 L 18.566406 141.136719 C 18.519531 142.019531 18.824219 142.855469 19.429688 143.5 C 20.039062 144.132812 20.847656 144.488281 21.730469 144.488281 L 128.894531 144.488281 C 129.777344 144.488281 130.59375 144.132812 131.199219 143.5 C 131.800781 142.855469 132.113281 142.019531 132.0625 141.136719 L 126.417969 39.597656 C 126.332031 37.921875 124.933594 36.601562 123.253906 36.601562 Z M 27.375 36.601562 " fill-opacity="1" fill-rule="nonzero"/></g><path fill="#ff99d8" d="M 103.871094 55.792969 C 102.121094 55.792969 100.699219 54.371094 100.699219 52.621094 L 100.699219 30.839844 C 100.699219 16.839844 89.3125 5.453125 75.3125 5.453125 C 61.3125 5.453125 49.929688 16.839844 49.929688 30.839844 L 49.929688 52.621094 C 49.929688 54.371094 48.507812 55.792969 46.753906 55.792969 C 45.003906 55.792969 43.582031 54.371094 43.582031 52.621094 L 43.582031 30.839844 C 43.582031 13.34375 57.816406 -0.890625 75.3125 -0.890625 C 92.808594 -0.890625 107.042969 13.34375 107.042969 30.839844 L 107.042969 52.621094 C 107.042969 54.371094 105.621094 55.792969 103.871094 55.792969 Z M 103.871094 55.792969 " fill-opacity="1" fill-rule="nonzero"/><g fill="#ffffff" fill-opacity="1"><g transform="translate(43.186437, 139.613171)"><g><path d="M 40.1875 -55.625 C 38.207031 -56.101562 36.601562 -57.125 35.375 -58.6875 C 34.144531 -60.257812 33.601562 -62.035156 33.75 -64.015625 C 33.8125 -64.898438 34.21875 -65.597656 34.96875 -66.109375 C 35.71875 -66.617188 36.5 -66.753906 37.3125 -66.515625 C 38.132812 -66.273438 38.679688 -65.675781 38.953125 -64.71875 C 39.296875 -63.289062 40.03125 -62.441406 41.15625 -62.171875 C 42.28125 -61.898438 43.40625 -62.101562 44.53125 -62.78125 C 45.65625 -63.457031 46.488281 -64.3125 47.03125 -65.34375 C 48.125 -67.175781 48.582031 -69.164062 48.40625 -71.3125 C 48.238281 -73.46875 47.40625 -75.328125 45.90625 -76.890625 C 43.320312 -79.347656 39.675781 -80.539062 34.96875 -80.46875 C 31.5625 -80.40625 28.117188 -79.347656 24.640625 -77.296875 C 21.710938 -75.597656 19.53125 -73.113281 18.09375 -69.84375 C 16.9375 -67.113281 16.492188 -64.347656 16.765625 -61.546875 C 17.453125 -55.828125 21.304688 -50.101562 28.328125 -44.375 C 29.617188 -43.414062 32.359375 -41.554688 36.546875 -38.796875 C 40.742188 -36.035156 43.796875 -33.671875 45.703125 -31.703125 C 48.566406 -28.765625 50.59375 -25.382812 51.78125 -21.5625 C 52.976562 -17.75 53.171875 -13.867188 52.359375 -9.921875 C 51.535156 -6.097656 49.773438 -2.707031 47.078125 0.25 C 44.390625 3.21875 41.359375 5.382812 37.984375 6.75 C 34.609375 8.113281 30.992188 8.488281 27.140625 7.875 C 23.296875 7.257812 19.90625 5.519531 16.96875 2.65625 C 14.101562 -0.132812 12.429688 -3.503906 11.953125 -7.453125 C 11.484375 -11.410156 12.578125 -14.957031 15.234375 -18.09375 C 17.617188 -20.613281 20.550781 -22.023438 24.03125 -22.328125 C 27.507812 -22.640625 30.507812 -21.570312 33.03125 -19.125 C 33.84375 -18.300781 34.210938 -17.378906 34.140625 -16.359375 C 34.078125 -15.335938 33.6875 -14.519531 32.96875 -13.90625 C 32.257812 -13.289062 31.425781 -12.894531 30.46875 -12.71875 C 29.507812 -12.550781 28.585938 -12.910156 27.703125 -13.796875 C 26.816406 -14.546875 25.796875 -14.851562 24.640625 -14.71875 C 23.484375 -14.582031 22.460938 -14.109375 21.578125 -13.296875 C 20.554688 -12.203125 20.09375 -10.972656 20.1875 -9.609375 C 20.289062 -8.242188 20.785156 -6.945312 21.671875 -5.71875 C 23.585938 -3.0625 26.488281 -1.769531 30.375 -1.84375 C 33.09375 -1.84375 35.644531 -3.066406 38.03125 -5.515625 C 40.007812 -7.566406 41.238281 -9.988281 41.71875 -12.78125 C 41.78125 -13.050781 41.8125 -13.359375 41.8125 -13.703125 C 41.8125 -14.179688 41.8125 -14.585938 41.8125 -14.921875 C 41.8125 -15.535156 41.742188 -16.082031 41.609375 -16.5625 C 41.335938 -17.851562 40.796875 -19.148438 39.984375 -20.453125 C 39.710938 -20.929688 39.335938 -21.40625 38.859375 -21.875 C 38.441406 -22.351562 37.894531 -22.9375 37.21875 -23.625 C 36.125 -24.644531 35.066406 -25.53125 34.046875 -26.28125 C 33.234375 -26.894531 32.296875 -27.539062 31.234375 -28.21875 C 30.179688 -28.90625 29.109375 -29.601562 28.015625 -30.3125 C 26.921875 -31.03125 25.96875 -31.660156 25.15625 -32.203125 C 16.695312 -38.203125 11.003906 -44.304688 8.078125 -50.515625 C 6.097656 -54.597656 5.109375 -58.800781 5.109375 -63.125 C 5.109375 -67.457031 6.0625 -71.671875 7.96875 -75.765625 C 9.882812 -79.785156 12.664062 -83.09375 16.3125 -85.6875 C 19.957031 -88.28125 23.992188 -89.847656 28.421875 -90.390625 C 32.578125 -90.867188 36.5 -90.359375 40.1875 -88.859375 C 43.9375 -87.359375 47.140625 -84.800781 49.796875 -81.1875 C 51.429688 -79.070312 52.625 -76.753906 53.375 -74.234375 C 54.125 -71.710938 54.3125 -69.101562 53.9375 -66.40625 C 53.5625 -63.71875 52.519531 -61.382812 50.8125 -59.40625 C 49.925781 -58.445312 48.90625 -57.628906 47.75 -56.953125 C 46.59375 -56.273438 45.363281 -55.816406 44.0625 -55.578125 C 42.769531 -55.335938 41.476562 -55.351562 40.1875 -55.625 Z M 40.1875 -55.625 "/></g></g></g></svg>